<svg aria-hidden="true" style="position: absolute; width: 0; height: 0; overflow: hidden;" version="1.1" xmlns="http://www.w3.org/2000/svg" xmlns:xlink="http://www.w3.org/1999/xlink">
<defs>
<symbol id="icon-facebook" viewBox="0 0 32 32">
<path d="M29 0h-26c-1.65 0-3 1.35-3 3v26c0 1.65 1.35 3 3 3h13v-14h-4v-4h4v-2c0-3.306 2.694-6 6-6h4v4h-4c-1.1 0-2 0.9-2 2v2h6l-1 4h-5v14h9c1.65 0 3-1.35 3-3v-26c0-1.65-1.35-3-3-3z"></path>
</symbol>
<symbol id="icon-instagram" viewBox="0 0 32 32">
<path d="M16 2.881c4.275 0 4.781 0.019 6.462 0.094 1.563 0.069 2.406 0.331 2.969 0.55 0.744 0.288 1.281 0.638 1.837 1.194 0.563 0.563 0.906 1.094 1.2 1.838 0.219 0.563 0.481 1.412 0.55 2.969 0.075 1.688 0.094 2.194 0.094 6.463s-0.019 4.781-0.094 6.463c-0.069 1.563-0.331 2.406-0.55 2.969-0.288 0.744-0.637 1.281-1.194 1.837-0.563 0.563-1.094 0.906-1.837 1.2-0.563 0.219-1.413 0.481-2.969 0.55-1.688 0.075-2.194 0.094-6.463 0.094s-4.781-0.019-6.463-0.094c-1.563-0.069-2.406-0.331-2.969-0.55-0.744-0.288-1.281-0.637-1.838-1.194-0.563-0.563-0.906-1.094-1.2-1.837-0.219-0.563-0.481-1.413-0.55-2.969-0.075-1.688-0.094-2.194-0.094-6.463s0.019-4.781 0.094-6.463c0.069-1.563 0.331-2.406 0.55-2.969 0.288-0.744 0.638-1.281 1.194-1.838 0.563-0.563 1.094-0.906 1.838-1.2 0.563-0.219 1.412-0.481 2.969-0.55 1.681-0.075 2.188-0.094 6.463-0.094zM16 0c-4.344 0-4.887 0.019-6.594 0.094-1.7 0.075-2.869 0.35-3.881 0.744-1.056 0.412-1.95 0.956-2.837 1.85-0.894 0.888-1.438 1.781-1.85 2.831-0.394 1.019-0.669 2.181-0.744 3.881-0.075 1.713-0.094 2.256-0.094 6.6s0.019 4.887 0.094 6.594c0.075 1.7 0.35 2.869 0.744 3.881 0.413 1.056 0.956 1.95 1.85 2.837 0.887 0.887 1.781 1.438 2.831 1.844 1.019 0.394 2.181 0.669 3.881 0.744 1.706 0.075 2.25 0.094 6.594 0.094s4.888-0.019 6.594-0.094c1.7-0.075 2.869-0.35 3.881-0.744 1.050-0.406 1.944-0.956 2.831-1.844s1.438-1.781 1.844-2.831c0.394-1.019 0.669-2.181 0.744-3.881 0.075-1.706 0.094-2.25 0.094-6.594s-0.019-4.887-0.094-6.594c-0.075-1.7-0.35-2.869-0.744-3.881-0.394-1.063-0.938-1.956-1.831-2.844-0.887-0.887-1.781-1.438-2.831-1.844-1.019-0.394-2.181-0.669-3.881-0.744-1.712-0.081-2.256-0.1-6.6-0.1v0z"></path>
<path d="M16 7.781c-4.537 0-8.219 3.681-8.219 8.219s3.681 8.219 8.219 8.219 8.219-3.681 8.219-8.219c0-4.537-3.681-8.219-8.219-8.219zM16 21.331c-2.944 0-5.331-2.387-5.331-5.331s2.387-5.331 5.331-5.331c2.944 0 5.331 2.387 5.331 5.331s-2.387 5.331-5.331 5.331z"></path>
<path d="M26.462 7.456c0 1.060-0.859 1.919-1.919 1.919s-1.919-0.859-1.919-1.919c0-1.060 0.859-1.919 1.919-1.919s1.919 0.859 1.919 1.919z"></path>
</symbol>
<symbol id="icon-telegram" viewBox="0 0 32 32">
<path d="M16 0c-8.838 0-16 7.162-16 16s7.162 16 16 16 16-7.163 16-16-7.163-16-16-16zM23.863 10.969l-2.625 12.369c-0.181 0.881-0.712 1.087-1.45 0.681l-4-2.956-1.919 1.869c-0.225 0.219-0.4 0.4-0.8 0.4-0.519 0-0.431-0.194-0.606-0.688l-1.363-4.475-3.956-1.231c-0.856-0.262-0.862-0.85 0.194-1.269l15.412-5.95c0.7-0.319 1.381 0.169 1.113 1.25z"></path>
</symbol>
<symbol id="icon-phone" viewBox="0 0 32 32">
<path d="M22 20c-2 2-2 4-4 4s-4-2-6-4-4-4-4-6 2-2 4-4-4-8-6-8-6 6-6 6c0 4 4.109 12.109 8 16s12 8 16 8c0 0 6-4 6-6s-6-8-8-6z"></path>
</symbol>
<symbol id="icon-envelop" viewBox="0 0 32 32">
<path d="M29 4h-26c-1.65 0-3 1.35-3 3v20c0 1.65 1.35 3 3 3h26c1.65 0 3-1.35 3-3v-20c0-1.65-1.35-3-3-3zM12.461 17.199l-8.461 6.59v-15.676l8.461 9.086zM5.512 8h20.976l-10.488 7.875-10.488-7.875zM12.79 17.553l3.21 3.447 3.21-3.447 6.58 8.447h-19.579l6.58-8.447zM19.539 17.199l8.461-9.086v15.676l-8.461-6.59z"></path>
</symbol>
<symbol id="icon-location2" viewBox="0 0 32 32">
<path d="M16 0c-5.523 0-10 4.477-10 10 0 10 10 22 10 22s10-12 10-22c0-5.523-4.477-10-10-10zM16 16.125c-3.383 0-6.125-2.742-6.125-6.125s2.742-6.125 6.125-6.125 6.125 2.742 6.125 6.125-2.742 6.125-6.125 6.125zM12.125 10c0-2.14 1.735-3.875 3.875-3.875s3.875 1.735 3.875 3.875c0 2.14-1.735 3.875-3.875 3.875s-3.875-1.735-3.875-3.875z"></path>
</symbol>
<symbol id="icon-apple" viewBox="0 0 32 32">
<path fill="#999" style="fill: var(--color1, #999)" d="M9.437 31.4c-0.631-0.421-1.191-0.937-1.659-1.533-0.511-0.617-0.984-1.267-1.419-1.939-1.021-1.493-1.82-3.127-2.373-4.848-0.667-2.003-0.991-3.92-0.991-5.796 0-2.093 0.453-3.92 1.336-5.453 0.653-1.2 1.627-2.204 2.8-2.909 1.133-0.707 2.453-1.093 3.787-1.12 0.467 0 0.973 0.067 1.507 0.2 0.387 0.107 0.853 0.28 1.427 0.493 0.733 0.28 1.133 0.453 1.267 0.493 0.427 0.16 0.787 0.227 1.067 0.227 0.213 0 0.52-0.067 0.86-0.173 0.193-0.067 0.56-0.187 1.080-0.413 0.515-0.187 0.923-0.347 1.247-0.467 0.493-0.147 0.971-0.28 1.4-0.347 0.52-0.080 1.036-0.107 1.531-0.067 0.947 0.067 1.813 0.267 2.587 0.56 1.36 0.547 2.457 1.4 3.276 2.613-0.347 0.213-0.667 0.461-0.967 0.733-0.649 0.573-1.2 1.253-1.64 2.007-0.573 1.027-0.867 2.187-0.859 3.36 0.020 1.444 0.387 2.713 1.12 3.813 0.516 0.8 1.205 1.485 2.045 2.048 0.413 0.28 0.776 0.473 1.12 0.6-0.16 0.5-0.336 0.987-0.54 1.467-0.463 1.076-1.013 2.107-1.667 3.080-0.576 0.84-1.029 1.467-1.373 1.88-0.536 0.64-1.053 1.12-1.573 1.463-0.573 0.38-1.247 0.581-1.936 0.581-0.467 0.020-0.933-0.040-1.379-0.169-0.387-0.127-0.768-0.269-1.141-0.431-0.391-0.179-0.795-0.331-1.207-0.453-0.507-0.133-1.027-0.197-1.552-0.196-0.533 0-1.053 0.067-1.547 0.193-0.413 0.117-0.813 0.261-1.209 0.433-0.56 0.233-0.927 0.387-1.14 0.453-0.432 0.128-0.875 0.205-1.32 0.233-0.693 0-1.339-0.2-1.964-0.617zM18.576 6.787c-0.907 0.453-1.768 0.645-2.631 0.581-0.133-0.861 0-1.747 0.36-2.716 0.32-0.827 0.747-1.573 1.333-2.24 0.613-0.693 1.347-1.267 2.173-1.68 0.88-0.453 1.72-0.693 2.52-0.733 0.107 0.907 0 1.8-0.333 2.76-0.304 0.853-0.757 1.64-1.333 2.347-0.58 0.693-1.3 1.267-2.089 1.681z"></path>
</symbol>
<symbol id="icon-googlepay" viewBox="0 0 32 32">
<path fill="#5f6368" style="fill: var(--color2, #5f6368)" d="M32 13.333l-4.179 9.333h-1.291l1.551-3.267-2.748-6.067h1.36l1.987 4.653h0.027l1.931-4.653zM14.644 16.221v3.779h-1.311v-9.333h3.476c0.025-0.001 0.053-0.001 0.082-0.001 0.831 0 1.59 0.306 2.171 0.812l-0.004-0.003c0.611 0.503 0.953 1.22 0.941 1.971 0 0.009 0 0.020 0 0.030 0 0.788-0.366 1.49-0.937 1.946l-0.005 0.004c-0.607 0.531-1.357 0.795-2.249 0.795zM14.641 11.816v3.259h2.197c0.487 0.013 0.957-0.163 1.297-0.483 0.336-0.3 0.527-0.711 0.527-1.141 0-0.429-0.191-0.84-0.527-1.14-0.321-0.307-0.757-0.496-1.237-0.496-0.021 0-0.043 0-0.064 0.001l0.003-0zM22.629 13.333c0.836 0 1.496 0.232 1.98 0.696 0.483 0.464 0.724 1.101 0.724 1.909v3.857h-1.081v-0.869h-0.049c-0.468 0.716-1.091 1.073-1.867 1.073-0.664 0-1.219-0.204-1.667-0.613-0.412-0.366-0.67-0.898-0.67-1.489 0-0.015 0-0.031 0.001-0.046l-0 0.002c0-0.647 0.236-1.161 0.707-1.544s1.1-0.573 1.887-0.575c0.671 0 1.224 0.128 1.657 0.383v-0.268c0-0.004 0-0.009 0-0.014 0-0.408-0.18-0.775-0.465-1.024l-0.002-0.001c-0.28-0.266-0.66-0.429-1.078-0.429-0.005 0-0.009 0-0.014 0h0.001c-0.632 0-1.132 0.277-1.499 0.831l-0.996-0.651c0.547-0.817 1.357-1.227 2.431-1.227zM21.167 17.88c-0 0.003-0 0.006-0 0.009 0 0.308 0.147 0.582 0.374 0.756l0.002 0.002c0.249 0.204 0.56 0.312 0.879 0.307 0.476-0.001 0.933-0.2 1.271-0.549 0.346-0.32 0.563-0.777 0.563-1.284 0-0.002 0-0.004 0-0.005v0c-0.353-0.293-0.844-0.439-1.475-0.439-0.46 0-0.843 0.116-1.149 0.347-0.309 0.232-0.464 0.516-0.464 0.857zM5.441 10.667c0.020-0 0.043-0 0.067-0 1.379 0 2.635 0.528 3.577 1.393l-0.004-0.003-1.552 1.523c-0.532-0.496-1.248-0.8-2.035-0.8-0.019 0-0.037 0-0.056 0.001l0.003-0c-1.411 0.009-2.607 0.916-3.048 2.177l-0.007 0.023c-0.108 0.304-0.171 0.656-0.171 1.021s0.063 0.717 0.178 1.043l-0.007-0.022c0.447 1.284 1.644 2.191 3.054 2.2h0.001c0.735 0 1.364-0.184 1.853-0.508 0.572-0.373 0.964-0.96 1.085-1.623h-2.939v-2.053h5.132c0.063 0.359 0.093 0.72 0.093 1.084 0 1.623-0.592 2.996-1.619 3.924-0.901 0.816-2.139 1.288-3.607 1.288-0.007 0-0.014 0-0.022 0-2.093 0-3.91-1.179-4.825-2.909l-0.014-0.030c-0.365-0.696-0.579-1.52-0.579-2.395s0.214-1.699 0.593-2.424l-0.014 0.029c0.929-1.76 2.746-2.939 4.839-2.939 0.008 0 0.016 0 0.024 0h-0.001z"></path>
</symbol>
<symbol id="icon-googleplay" viewBox="0 0 32 32">
<path fill="#607d8b" style="fill: var(--color3, #607d8b)" d="M1.627 0c-0.040 0.124-0.080 0.247-0.080 0.411v30.972c0 0.289 0.081 0.453 0.245 0.617l15.22-16.124zM18.039 16.944l3.935 4.060-5.617 3.2c0 0-7.14 4.059-11.077 6.319zM19.107 15.836l4.221 4.389c0.661-0.368 5.828-3.323 6.565-3.733 0.779-0.451 0.7-1.067 0.039-1.395-0.612-0.34-5.779-3.3-6.56-3.78l-4.271 4.523zM18.036 14.769l3.979-4.225-5.679-3.241c0 0-9.257-5.296-12.337-7.064l14.040 14.531z"></path>
</symbol>
<symbol id="icon-local_taxi" viewBox="0 0 24 24">
<path d="M5.016 11.016h13.969l-1.5-4.5h-10.969zM17.484 15.984q0.609 0 1.055-0.445t0.445-1.055-0.445-1.055-1.055-0.445-1.055 0.445-0.445 1.055 0.445 1.055 1.055 0.445zM6.516 15.984q0.609 0 1.055-0.445t0.445-1.055-0.445-1.055-1.055-0.445-1.055 0.445-0.445 1.055 0.445 1.055 1.055 0.445zM18.938 6l2.063 6v8.016q0 0.422-0.281 0.703t-0.703 0.281h-1.031q-0.422 0-0.703-0.281t-0.281-0.703v-1.031h-12v1.031q0 0.422-0.281 0.703t-0.703 0.281h-1.031q-0.422 0-0.703-0.281t-0.281-0.703v-8.016l2.063-6q0.281-0.984 1.453-0.984h2.484v-2.016h6v2.016h2.484q1.172 0 1.453 0.984z"></path>
</symbol>
<symbol id="icon-sphere" viewBox="0 0 32 32">
<path d="M15 2c-8.284 0-15 6.716-15 15s6.716 15 15 15c8.284 0 15-6.716 15-15s-6.716-15-15-15zM23.487 22c0.268-1.264 0.437-2.606 0.492-4h3.983c-0.104 1.381-0.426 2.722-0.959 4h-3.516zM6.513 12c-0.268 1.264-0.437 2.606-0.492 4h-3.983c0.104-1.381 0.426-2.722 0.959-4h3.516zM21.439 12c0.3 1.28 0.481 2.62 0.54 4h-5.979v-4h5.439zM16 10v-5.854c0.456 0.133 0.908 0.355 1.351 0.668 0.831 0.586 1.625 1.488 2.298 2.609 0.465 0.775 0.867 1.638 1.203 2.578h-4.852zM10.351 7.422c0.673-1.121 1.467-2.023 2.298-2.609 0.443-0.313 0.895-0.535 1.351-0.668v5.854h-4.852c0.336-0.94 0.738-1.803 1.203-2.578zM14 12v4h-5.979c0.059-1.38 0.24-2.72 0.54-4h5.439zM2.997 22c-0.533-1.278-0.854-2.619-0.959-4h3.983c0.055 1.394 0.224 2.736 0.492 4h-3.516zM8.021 18h5.979v4h-5.439c-0.3-1.28-0.481-2.62-0.54-4zM14 24v5.854c-0.456-0.133-0.908-0.355-1.351-0.668-0.831-0.586-1.625-1.488-2.298-2.609-0.465-0.775-0.867-1.638-1.203-2.578h4.852zM19.649 26.578c-0.673 1.121-1.467 2.023-2.298 2.609-0.443 0.312-0.895 0.535-1.351 0.668v-5.854h4.852c-0.336 0.94-0.738 1.802-1.203 2.578zM16 22v-4h5.979c-0.059 1.38-0.24 2.72-0.54 4h-5.439zM23.98 16c-0.055-1.394-0.224-2.736-0.492-4h3.516c0.533 1.278 0.855 2.619 0.959 4h-3.983zM25.958 10h-2.997c-0.582-1.836-1.387-3.447-2.354-4.732 1.329 0.636 2.533 1.488 3.585 2.54 0.671 0.671 1.261 1.404 1.766 2.192zM5.808 7.808c1.052-1.052 2.256-1.904 3.585-2.54-0.967 1.285-1.771 2.896-2.354 4.732h-2.997c0.504-0.788 1.094-1.521 1.766-2.192zM4.042 24h2.997c0.583 1.836 1.387 3.447 2.354 4.732-1.329-0.636-2.533-1.488-3.585-2.54-0.671-0.671-1.261-1.404-1.766-2.192zM24.192 26.192c-1.052 1.052-2.256 1.904-3.585 2.54 0.967-1.285 1.771-2.896 2.354-4.732h2.997c-0.504 0.788-1.094 1.521-1.766 2.192z"></path>
</symbol>
<symbol id="icon-appleinc" viewBox="0 0 32 32">
<path d="M24.734 17.003c-0.040-4.053 3.305-5.996 3.454-6.093-1.88-2.751-4.808-3.127-5.851-3.171-2.492-0.252-4.862 1.467-6.127 1.467-1.261 0-3.213-1.43-5.28-1.392-2.716 0.040-5.221 1.579-6.619 4.012-2.822 4.897-0.723 12.151 2.028 16.123 1.344 1.944 2.947 4.127 5.051 4.049 2.026-0.081 2.793-1.311 5.242-1.311s3.138 1.311 5.283 1.271c2.18-0.041 3.562-1.981 4.897-3.931 1.543-2.255 2.179-4.439 2.216-4.551-0.048-0.022-4.252-1.632-4.294-6.473zM20.705 5.11c1.117-1.355 1.871-3.235 1.665-5.11-1.609 0.066-3.559 1.072-4.713 2.423-1.036 1.199-1.942 3.113-1.699 4.951 1.796 0.14 3.629-0.913 4.747-2.264z"></path>
</symbol>
<symbol id="icon-android" viewBox="0 0 32 32">
<path d="M28 12c-1.1 0-2 0.9-2 2v8c0 1.1 0.9 2 2 2s2-0.9 2-2v-8c0-1.1-0.9-2-2-2zM4 12c-1.1 0-2 0.9-2 2v8c0 1.1 0.9 2 2 2s2-0.9 2-2v-8c0-1.1-0.9-2-2-2zM7 23c0 1.657 1.343 3 3 3v0 4c0 1.1 0.9 2 2 2s2-0.9 2-2v-4h4v4c0 1.1 0.9 2 2 2s2-0.9 2-2v-4c1.657 0 3-1.343 3-3v-11h-18v11z"></path>
<path d="M24.944 10c-0.304-2.746-1.844-5.119-4.051-6.551l1.001-2.001c0.247-0.494 0.047-1.095-0.447-1.342s-1.095-0.047-1.342 0.447l-1.004 2.009-0.261-0.104c-0.893-0.297-1.848-0.458-2.84-0.458s-1.947 0.161-2.84 0.458l-0.261 0.104-1.004-2.009c-0.247-0.494-0.848-0.694-1.342-0.447s-0.694 0.848-0.447 1.342l1.001 2.001c-2.207 1.433-3.747 3.805-4.051 6.551v1h17.944v-1h-0.056zM13 8c-0.552 0-1-0.448-1-1s0.447-0.999 0.998-1c0.001 0 0.002 0 0.003 0s0.001-0 0.002-0c0.551 0.001 0.998 0.448 0.998 1s-0.448 1-1 1zM19 8c-0.552 0-1-0.448-1-1s0.446-0.999 0.998-1c0 0 0.001 0 0.002 0s0.002-0 0.003-0c0.551 0.001 0.998 0.448 0.998 1s-0.448 1-1 1z"></path>
</symbol>
</defs>
</svg>
